<svg width="173" height="121" viewBox="0 0 173 121" xmlns="http://www.w3.org/2000/svg">
    <path fill-rule="evenodd" clip-rule="evenodd" d="M145.448 0.601807C139.417 0.601807 134.632 5.53478 133.544 11.4673C128.433 39.3368 104.019 60.4566 74.6728 60.4566C43.6716 60.4566 18.1751 36.8879 15.124 6.69123C14.815 3.63317 12.0292 1.03764 9.29057 2.43304C6.1292 4.04384 3.55892 6.61412 1.94812 9.7755C0.116882 13.3695 0.116882 18.0743 0.116882 27.484V93.4292C0.116882 102.839 0.116882 107.544 1.94812 111.138C3.55892 114.299 6.1292 116.869 9.29057 118.48C12.8846 120.311 17.5894 120.311 26.999 120.311H145.448C154.858 120.311 159.563 120.311 163.157 118.48C166.318 116.869 168.889 114.299 170.499 111.138C172.331 107.544 172.331 102.839 172.331 93.4292C172.331 93.1972 172.141 93.0094 171.909 93.0065C154.125 92.7806 139.778 78.294 139.778 60.4566C139.778 42.6191 154.125 28.1325 171.909 27.9067C172.141 27.9037 172.331 27.7159 172.331 27.4839C172.331 18.0743 172.331 13.3695 170.499 9.7755C168.889 6.61412 166.318 4.04384 163.157 2.43304C159.563 0.601807 154.858 0.601807 145.448 0.601807Z" fill="#2B2B2B"/>
</svg>